<?xml version="1.0" encoding="UTF-8"?>
<svg width="254px" height="200px" viewBox="0 0 254 200" version="1.1" xmlns="http://www.w3.org/2000/svg" xmlns:xlink="http://www.w3.org/1999/xlink">
    <!-- Generator: Sketch 60.1 (88133) - https://sketch.com -->
    <title>Envelope_font_awesome</title>
    <desc>Created with Sketch.</desc>
    <g id="Page-1" stroke="none" stroke-width="1" fill="none" fill-rule="evenodd">
        <g id="Envelope_font_awesome" transform="translate(-0.000000, 0.000000)" fill="#000000" fill-rule="nonzero">
            <g id="g2991" transform="translate(127.102804, 100.000000) scale(-1, 1) rotate(-180.000000) translate(-127.102804, -100.000000) ">
                <path d="M235.719215,22.6739666 L235.719215,131.509006 C232.697174,128.107911 229.439035,124.990241 225.9448,122.155995 C200.635205,102.694174 180.519743,86.7279222 165.598415,74.2572406 C160.782036,70.1948216 156.862827,67.0299138 153.840786,64.7625171 C150.818744,62.4951204 146.734267,60.2041051 141.587353,57.889471 C136.440439,55.5748369 131.600451,54.4175198 127.067389,54.4175198 L126.925731,54.4175198 L126.784073,54.4175198 C122.251011,54.4175198 117.411023,55.5748369 112.264109,57.889471 C107.117195,60.2041051 103.032718,62.4951204 100.010676,64.7625171 C96.9886352,67.0299138 93.0694255,70.1948216 88.2530473,74.2572406 C73.3317188,86.7279222 53.216257,102.694174 27.9066618,122.155995 C24.4124267,124.990241 21.1542885,128.107911 18.1322473,131.509006 L18.1322473,22.6739666 C18.1322473,21.4457934 18.5808315,20.3829512 19.478,19.48544 C20.3751685,18.5879289 21.4376049,18.1391733 22.6653091,18.1391733 L231.186153,18.1391733 C232.413857,18.1391733 233.476294,18.5879289 234.373462,19.48544 C235.27063,20.3829512 235.719215,21.4457934 235.719215,22.6739666 Z M235.719215,171.613585 L235.719215,173.17242 L235.719215,175.085536 C235.719215,175.085536 235.695605,175.699622 235.648386,176.927796 C235.601166,178.155969 235.459508,178.746437 235.223411,178.699199 C234.987314,178.651962 234.727607,179.077099 234.444291,179.97461 C234.160975,180.872121 233.736,181.226402 233.169367,181.037452 C232.602735,180.848502 231.941663,180.966596 231.186153,181.391733 L22.6653091,181.391733 C21.4376049,181.391733 20.3751685,180.942977 19.478,180.045466 C18.5808315,179.147955 18.1322473,178.085113 18.1322473,176.856939 C18.1322473,160.985163 25.0734982,147.569733 38.956,136.610649 C57.1826861,122.25047 76.1176631,107.276204 95.760931,91.6878524 C96.3275637,91.2154781 97.9802425,89.8219739 100.718967,87.5073398 C103.457692,85.1927058 105.629784,83.4213021 107.235244,82.1931289 C108.840703,80.9649557 110.941966,79.4769767 113.539033,77.7291917 C116.136099,75.9814068 118.520679,74.6823775 120.692771,73.8321037 C122.864863,72.98183 124.895297,72.5566931 126.784073,72.5566931 L126.925731,72.5566931 L127.067389,72.5566931 C128.956165,72.5566931 130.986599,72.98183 133.158691,73.8321037 C135.330783,74.6823775 137.715363,75.9814068 140.312429,77.7291917 C142.909496,79.4769767 145.010759,80.9649557 146.616218,82.1931289 C148.221678,83.4213021 150.39377,85.1927058 153.132495,87.5073398 C155.87122,89.8219739 157.523898,91.2154781 158.090531,91.6878524 C177.733799,107.276204 196.668776,122.25047 214.895462,136.610649 C219.995157,140.673068 224.740706,146.128991 229.132109,152.978418 C233.523513,159.827846 235.719215,166.039568 235.719215,171.613585 Z M253.851462,176.856939 L253.851462,22.6739666 C253.851462,16.4386258 251.632151,11.1007961 247.193527,6.66047769 C242.754904,2.22015923 237.419113,0 231.186153,0 L22.6653091,0 C16.4323491,0 11.0965576,2.22015923 6.65793455,6.66047769 C2.21931152,11.1007961 0,16.4386258 0,22.6739666 L0,176.856939 C0,183.09228 2.21931152,188.43011 6.65793455,192.870428 C11.0965576,197.310747 16.4323491,199.530906 22.6653091,199.530906 L231.186153,199.530906 C237.419113,199.530906 242.754904,197.310747 247.193527,192.870428 C251.632151,188.43011 253.851462,183.09228 253.851462,176.856939 Z" id="path2993"></path>
            </g>
        </g>
    </g>
</svg>