<?xml version="1.0" encoding="UTF-8"?>
<svg width="201px" height="200px" viewBox="0 0 201 200" version="1.1" xmlns="http://www.w3.org/2000/svg" xmlns:xlink="http://www.w3.org/1999/xlink">
    <!-- Generator: Sketch 60.1 (88133) - https://sketch.com -->
    <title>Font_Awesome_5_brands_linkedin-in</title>
    <desc>Created with Sketch.</desc>
    <g id="Page-1" stroke="none" stroke-width="1" fill="none" fill-rule="evenodd">
        <g id="Font_Awesome_5_brands_linkedin-in" fill="#000000" fill-rule="nonzero">
            <path d="M44.7767857,200 L3.30357143,200 L3.30357143,66.4732143 L44.7767857,66.4732143 L44.7767857,200 Z M24.0178571,48.2589286 C10.7589286,48.2589286 0,37.2767857 0,24.0178571 C0,10.7589286 10.7589286,0 24.0178571,0 C37.2767857,0 48.0357143,10.7589286 48.0357143,24.0178571 C48.0357143,37.2767857 37.2767857,48.2589286 24.0178571,48.2589286 Z M200,200 L158.616071,200 L158.616071,135 C158.616071,119.508929 158.303571,99.6428571 137.053571,99.6428571 C115.491071,99.6428571 112.1875,116.473214 112.1875,133.883929 L112.1875,200 L70.7589286,200 L70.7589286,66.4732143 L110.535714,66.4732143 L110.535714,84.6875 L111.116071,84.6875 C116.651786,74.1964286 130.178571,63.125 150.357143,63.125 C192.321429,63.125 200.044643,90.7589286 200.044643,126.651786 L200.044643,200 L200,200 Z" id="Shape"></path>
        </g>
    </g>
</svg>