<?xml version="1.0" encoding="UTF-8"?>
<svg width="110px" height="200px" viewBox="0 0 110 200" version="1.1" xmlns="http://www.w3.org/2000/svg" xmlns:xlink="http://www.w3.org/1999/xlink">
    <!-- Generator: Sketch 60.1 (88133) - https://sketch.com -->
    <title>smartphone</title>
    <desc>Created with Sketch.</desc>
    <g id="Page-1" stroke="none" stroke-width="1" fill="none" fill-rule="evenodd">
        <g id="smartphone" fill="#000000" fill-rule="nonzero">
            <path d="M89.0174603,0 L21.5047619,0 C10.0269841,0 0.274603175,9.35873016 0.274603175,20.8333333 L0.274603175,179.033333 C0.274603175,190.507937 9.82063492,199.842857 21.2984127,199.842857 L88.9222222,199.769841 C100.398413,199.769841 109.787302,190.433333 109.787302,178.957143 L109.885714,20.8222222 C109.884127,9.30634921 100.54127,0 89.0174603,0 Z M45.5079365,12.4904762 L65.0952381,12.4904762 C66.815873,12.4904762 68.2174603,13.8873016 68.2174603,15.6126984 C68.2174603,17.3380952 66.815873,18.7349206 65.0952381,18.7349206 L45.5079365,18.7349206 C43.7825397,18.7349206 42.3857143,17.3380952 42.3857143,15.6126984 C42.3857143,13.8873016 43.7825397,12.4904762 45.5079365,12.4904762 Z M33.7380952,13.484127 C34.8952381,12.3285714 37.0015873,12.3126984 38.1571429,13.484127 C38.7365079,14.0619048 39.0793651,14.8730159 39.0793651,15.7015873 C39.0793651,16.5142857 38.7365079,17.3238095 38.1571429,17.9031746 C37.5809524,18.4825397 36.7666667,18.8238095 35.9555556,18.8238095 C35.1285714,18.8238095 34.3333276,18.4825397 33.7380952,17.9031746 C33.1619048,17.3253968 32.8333276,16.5142857 32.8333276,15.7015873 C32.831746,14.8730159 33.1619048,14.0619048 33.7380952,13.484127 Z M54.6714286,193.653968 C49.5190476,193.653968 45.3285714,189.460317 45.3285714,184.309524 C45.3285714,179.157143 49.5190476,174.965079 54.6714286,174.965079 C59.8238095,174.965079 64.0142857,179.157143 64.0142857,184.309524 C64.0142857,189.460317 59.8222222,193.653968 54.6714286,193.653968 Z M100.193651,168.614286 L11.2031746,168.614286 L11.2031746,29.6650794 L100.193651,29.6650794 L100.193651,168.614286 Z" id="Shape"></path>
        </g>
    </g>
</svg>